<svg width="136" height="42" viewBox="0 0 136 42" fill="none" xmlns="http://www.w3.org/2000/svg">
<g opacity="0.2" clip-path="url(#clip0_26_542)">
<path d="M61.7945 8.87012L61.4097 9.46746C60.1533 11.5525 59.2987 13.5925 58.846 15.5874C58.3876 17.5823 58.1612 19.2785 58.1612 20.6705C58.1612 22.0624 58.3989 23.7586 58.8686 25.7535C59.344 27.7484 60.1872 29.794 61.4097 31.9016L61.7379 32.4426L59.9892 32.3863L59.8533 32.251C58.7441 30.7464 57.799 28.9487 57.0293 26.8524C56.254 24.7617 55.8691 22.6823 55.8691 20.6141C55.8691 18.546 56.254 16.4947 57.0293 14.404C57.8046 12.3077 58.7441 10.51 59.8533 9.00536L59.9892 8.87012H61.7888H61.7945Z" fill="black"/>
<path d="M79.8705 26.0802H73.7414V30.3856H70.4646V26.0802H64.8958C63.8488 25.821 63.3225 25.3307 63.3225 24.6094C63.3225 23.8881 63.8488 23.4034 64.8958 23.1442H79.8705V26.0802ZM79.8026 19.2615L77.5105 21.6396L72.1398 15.8972L66.7294 21.6396L64.4714 19.2615L70.4646 13.3557H66.5993C65.5523 13.0964 65.026 12.6062 65.026 11.8905C65.026 11.1748 65.5523 10.6845 66.5993 10.4253H78.5915V13.3613H73.8036L79.8026 19.2671V19.2615Z" fill="black"/>
<path d="M83.3962 9.06172C84.3979 10.6565 85.3204 12.4824 86.1579 14.528C86.9955 16.5736 87.4143 18.6248 87.4143 20.6705C87.4143 22.7161 87.0295 24.7899 86.2541 26.8806C85.4788 28.9713 84.5337 30.7746 83.4018 32.2792L83.2943 32.4426H81.4946L81.8512 31.8171C83.1245 29.7151 83.9847 27.6695 84.4318 25.6859C84.8789 23.7023 85.0996 22.0117 85.0996 20.6141C85.0996 19.2166 84.8676 17.526 84.4035 15.5311C83.9395 13.5362 83.0906 11.4905 81.8512 9.38857L81.5512 8.87012H83.3L83.4075 9.06172H83.3962Z" fill="black"/>
<path d="M106.283 18.5741L103.957 20.7268L98.7162 15.0182L93.4417 20.7268L91.1497 18.5741L97.0807 12.5386H93.1191C92.0721 12.2794 91.5458 11.7892 91.5458 11.0735C91.5458 10.3578 92.0721 9.86751 93.1191 9.60829H97.0524V7.65283H100.329V9.60829H105.179V12.5443H100.363L106.294 18.5797L106.283 18.5741ZM117.488 26.3733H114.212V16.551H111.331V26.3733H107.924V12.2118C106.832 11.93 106.283 11.3834 106.283 10.5832C106.283 9.78298 106.832 9.23636 107.924 8.94895H111.331V13.615H114.212V8.94895H117.488V26.3733Z" fill="black"/>
<path d="M134.721 26.9592V37.9876H125.055C124.206 37.9876 123.436 37.8185 122.763 37.4804C122.084 37.1423 121.75 36.3308 121.75 35.0516V30.2221C120.658 29.9403 120.114 29.3937 120.114 28.5878C120.114 27.782 120.658 27.241 121.75 26.9536H126.6V25.2574H121.031C119.984 24.9925 119.458 24.5079 119.458 23.7866C119.458 23.0652 119.978 22.5806 121.031 22.3214H136.006V25.2574H129.882V26.9536H134.732L134.721 26.9592ZM128.298 8.59375C130.041 8.59375 131.535 9.21363 132.769 10.4534C134.002 11.6932 134.619 13.1809 134.619 14.9222C134.619 16.6635 134.002 18.1512 132.769 19.391C131.535 20.6308 130.041 21.2507 128.298 21.2507C126.555 21.2507 125.049 20.6308 123.793 19.391C122.536 18.1512 121.908 16.6635 121.908 14.9222C121.908 13.1809 122.536 11.6932 123.793 10.4534C125.049 9.21363 126.549 8.59375 128.298 8.59375ZM131.444 35.0572V29.9009H125.021V35.0572H131.444ZM128.298 17.9596C129.124 17.9596 129.843 17.661 130.443 17.0636C131.042 16.4663 131.342 15.7562 131.342 14.9278C131.342 14.0995 131.042 13.3894 130.443 12.7921C129.843 12.1947 129.124 11.896 128.298 11.896C127.471 11.896 126.747 12.1947 126.136 12.7921C125.525 13.3894 125.219 14.1051 125.219 14.9278C125.219 15.7506 125.525 16.4663 126.136 17.0636C126.747 17.661 127.466 17.9596 128.298 17.9596Z" fill="black"/>
<path d="M4.25584 18.4782H0V0H21.6131V4.23776H4.25584V18.4782Z" fill="black"/>
<path d="M21.6131 42.0002H0V23.522H4.25584V37.7624H21.6131V42.0002Z" fill="black"/>
<path d="M49.8306 18.4782H45.5691V4.23776H28.2175V0H49.8306V18.4782Z" fill="black"/>
<path d="M49.8306 42.0002H28.2175V37.7624H45.5691V23.522H49.8306V42.0002Z" fill="black"/>
<path d="M20.136 17.9259L18.5401 19.3798L14.1484 13.6825L9.64925 19.3798L8.10425 17.9766L12.8185 12.0595H9.32667C8.65321 11.8905 8.31364 11.5749 8.31364 11.1297C8.31364 10.6845 8.65321 10.3689 9.32667 10.2112H13.0562V8.77979H15.1898V10.2112H19.4003V12.0595H15.4331L20.1474 17.9259H20.136Z" fill="black"/>
<path d="M28.0874 23.8375H25.9595V15.5142H23.8316V23.8375H21.7037V11.6427C20.9849 11.4624 20.634 11.1356 20.634 10.6622C20.634 10.1888 20.9906 9.85634 21.7037 9.68164H23.8316V13.6038H25.9595V11.6427C25.2464 11.4624 24.8955 11.1356 24.8955 10.6622C24.8955 10.1888 25.2464 9.85634 25.9595 9.68164H28.0874V23.8375Z" fill="black"/>
<path d="M34.4259 25.0154V22.5359H29.6268C28.9533 22.3386 28.6138 22.023 28.6138 21.5835C28.6138 21.1439 28.9533 20.8002 29.6268 20.6255H41.8284V22.5359H36.5538V25.0154H34.4259Z" fill="black"/>
<path d="M35.5238 9.08984C36.9783 9.08984 38.2177 9.60266 39.2364 10.6283C40.255 11.6483 40.77 12.888 40.77 14.342C40.77 15.7959 40.255 17.0187 39.2364 18.0275C38.2177 19.0362 36.9783 19.5377 35.5238 19.5377C34.0694 19.5377 32.83 19.0305 31.8056 18.0105C30.7869 16.9962 30.2776 15.7621 30.2776 14.3194C30.2776 12.8768 30.7869 11.637 31.8056 10.6114C32.83 9.59702 34.0694 9.08984 35.5238 9.08984ZM35.5521 17.5766C36.4576 17.5766 37.2273 17.2554 37.8724 16.6186C38.512 15.9818 38.8289 15.2154 38.8289 14.3138C38.8289 13.4121 38.512 12.6401 37.8724 12.0089C37.2329 11.3778 36.4633 11.0566 35.5521 11.0566C34.641 11.0566 33.8769 11.3778 33.2374 12.0089C32.5979 12.6457 32.281 13.4121 32.281 14.3138C32.281 15.2154 32.5979 15.9818 33.2374 16.6186C33.8826 17.2554 34.6523 17.5766 35.5521 17.5766Z" fill="black"/>
<path d="M36.5821 24.2544H40.7926V33.2202H32.4847C31.9018 33.2202 31.3811 33.1075 30.934 32.8708C30.4756 32.6454 30.2549 32.1044 30.2549 31.2535V26.2155C29.5418 26.0408 29.1853 25.7139 29.1853 25.2406C29.1853 24.7672 29.5418 24.4291 30.2549 24.2544H36.5877H36.5821ZM38.6647 31.3662V26.114H32.3772V31.3662H38.6647Z" fill="black"/>
</g>
<defs>
<clipPath id="clip0_26_542">
<rect width="136" height="42" fill="white"/>
</clipPath>
</defs>
</svg>
