<svg width="136" height="42" viewBox="0 0 136 42" fill="none" xmlns="http://www.w3.org/2000/svg">
<path d="M61.7945 8.86998L61.4097 9.46732C60.1533 11.5524 59.2987 13.5924 58.846 15.5873C58.3876 17.5822 58.1612 19.2784 58.1612 20.6703C58.1612 22.0623 58.3989 23.7585 58.8686 25.7534C59.344 27.7483 60.1873 29.7939 61.4097 31.9015L61.7379 32.4425L59.9892 32.3862L59.8534 32.2509C58.7441 30.7463 57.799 28.9486 57.0293 26.8523C56.254 24.7616 55.8692 22.6821 55.8692 20.614C55.8692 18.5458 56.254 16.4946 57.0293 14.4039C57.8047 12.3075 58.7441 10.5099 59.8534 9.00523L59.9892 8.86998H61.7889H61.7945Z" fill="black"/>
<path d="M79.8705 26.0802H73.7414V30.3856H70.4647V26.0802H64.8958C63.8489 25.821 63.3225 25.3307 63.3225 24.6094C63.3225 23.8881 63.8489 23.4035 64.8958 23.1442H79.8705V26.0802ZM79.8026 19.2615L77.5106 21.6396L72.1398 15.8972L66.7295 21.6396L64.4714 19.2615L70.4647 13.3557H66.5993C65.5523 13.0965 65.026 12.6062 65.026 11.8905C65.026 11.1748 65.5523 10.6846 66.5993 10.4253H78.5915V13.3613H73.8037L79.8026 19.2671V19.2615Z" fill="black"/>
<path d="M83.3963 9.06158C84.398 10.6564 85.3205 12.4822 86.1581 14.5278C86.9956 16.5735 87.4144 18.6247 87.4144 20.6703C87.4144 22.7159 87.0296 24.7897 86.2543 26.8804C85.4789 28.9711 84.5338 30.7744 83.402 32.2791L83.2944 32.4425H81.4948L81.8513 31.817C83.1246 29.715 83.9849 27.6694 84.432 25.6858C84.879 23.7021 85.0998 22.0115 85.0998 20.614C85.0998 19.2164 84.8677 17.5258 84.4037 15.5309C83.9396 13.536 83.0907 11.4904 81.8513 9.38843L81.5513 8.86998H83.3001L83.4076 9.06158H83.3963Z" fill="black"/>
<path d="M106.283 18.574L103.957 20.7267L98.7162 15.0181L93.4416 20.7267L91.1496 18.574L97.0806 12.5386H93.1191C92.0721 12.2793 91.5458 11.7891 91.5458 11.0734C91.5458 10.3577 92.0721 9.86743 93.1191 9.60821H97.0523V7.65276H100.329V9.60821H105.179V12.5442H100.363L106.294 18.5796L106.283 18.574ZM117.488 26.3733H114.211V16.5509H111.331V26.3733H107.924V12.2117C106.832 11.93 106.283 11.3833 106.283 10.5831C106.283 9.78291 106.832 9.23628 107.924 8.94888H111.331V13.6149H114.211V8.94888H117.488V26.3733Z" fill="black"/>
<path d="M134.721 26.9593V37.9877H125.055C124.206 37.9877 123.436 37.8186 122.763 37.4805C122.084 37.1424 121.75 36.3309 121.75 35.0517V30.2222C120.657 29.9404 120.114 29.3938 120.114 28.588C120.114 27.7821 120.657 27.2411 121.75 26.9537H126.6V25.2575H121.031C119.984 24.9926 119.458 24.508 119.458 23.7867C119.458 23.0653 119.978 22.5807 121.031 22.3215H136.006V25.2575H129.882V26.9537H134.732L134.721 26.9593ZM128.298 8.59386C130.041 8.59386 131.535 9.21374 132.769 10.4535C134.002 11.6933 134.619 13.181 134.619 14.9223C134.619 16.6636 134.002 18.1514 132.769 19.3911C131.535 20.6309 130.041 21.2508 128.298 21.2508C126.555 21.2508 125.049 20.6309 123.793 19.3911C122.536 18.1514 121.908 16.6636 121.908 14.9223C121.908 13.181 122.536 11.6933 123.793 10.4535C125.049 9.21374 126.549 8.59386 128.298 8.59386ZM131.444 35.0573V29.901H125.021V35.0573H131.444ZM128.298 17.9598C129.124 17.9598 129.843 17.6611 130.443 17.0637C131.042 16.4664 131.342 15.7563 131.342 14.928C131.342 14.0996 131.042 13.3895 130.443 12.7922C129.843 12.1948 129.124 11.8962 128.298 11.8962C127.471 11.8962 126.747 12.1948 126.136 12.7922C125.525 13.3895 125.219 14.1052 125.219 14.928C125.219 15.7507 125.525 16.4664 126.136 17.0637C126.747 17.6611 127.466 17.9598 128.298 17.9598Z" fill="black"/>
<path d="M4.25584 18.4782H0V0H21.6131V4.23776H4.25584V18.4782Z" fill="black"/>
<path d="M21.6131 42H0V23.5218H4.25584V37.7622H21.6131V42Z" fill="black"/>
<path d="M49.8306 18.4782H45.5691V4.23776H28.2176V0H49.8306V18.4782Z" fill="black"/>
<path d="M49.8306 42H28.2176V37.7622H45.5691V23.5218H49.8306V42Z" fill="black"/>
<path d="M20.136 17.9259L18.54 19.3798L14.1484 13.6825L9.64919 19.3798L8.10419 17.9766L12.8184 12.0596H9.32661C8.65314 11.8905 8.31358 11.5749 8.31358 11.1297C8.31358 10.6846 8.65314 10.369 9.32661 10.2112H13.0561V8.77982H15.1897V10.2112H19.4003V12.0596H15.4331L20.1473 17.9259H20.136Z" fill="black"/>
<path d="M28.0874 23.8374H25.9595V15.514H23.8315V23.8374H21.7036V11.6426C20.9849 11.4622 20.634 11.1354 20.634 10.662C20.634 10.1887 20.9905 9.85617 21.7036 9.68147H23.8315V13.6037H25.9595V11.6426C25.2464 11.4622 24.8955 11.1354 24.8955 10.662C24.8955 10.1887 25.2464 9.85617 25.9595 9.68147H28.0874V23.8374Z" fill="black"/>
<path d="M34.4259 25.0152V22.5356H29.6267C28.9533 22.3384 28.6137 22.0228 28.6137 21.5832C28.6137 21.1437 28.9533 20.7999 29.6267 20.6252H41.8283V22.5356H36.5538V25.0152H34.4259Z" fill="black"/>
<path d="M35.5238 9.08977C36.9782 9.08977 38.2176 9.60258 39.2363 10.6282C40.255 11.6482 40.77 12.888 40.77 14.3419C40.77 15.7958 40.255 17.0187 39.2363 18.0274C38.2176 19.0361 36.9782 19.5376 35.5238 19.5376C34.0693 19.5376 32.8299 19.0305 31.8056 18.0105C30.7869 16.9961 30.2776 15.762 30.2776 14.3193C30.2776 12.8767 30.7869 11.6369 31.8056 10.6113C32.8299 9.59695 34.0693 9.08977 35.5238 9.08977ZM35.5521 17.5766C36.4576 17.5766 37.2272 17.2553 37.8724 16.6185C38.5119 15.9818 38.8288 15.2154 38.8288 14.3137C38.8288 13.4121 38.5119 12.64 37.8724 12.0089C37.2329 11.3777 36.4632 11.0565 35.5521 11.0565C34.6409 11.0565 33.8769 11.3777 33.2374 12.0089C32.5979 12.6457 32.281 13.4121 32.281 14.3137C32.281 15.2154 32.5979 15.9818 33.2374 16.6185C33.8826 17.2553 34.6522 17.5766 35.5521 17.5766Z" fill="black"/>
<path d="M36.5821 24.2544H40.7926V33.2202H32.4847C31.9018 33.2202 31.3811 33.1075 30.934 32.8708C30.4756 32.6454 30.2549 32.1044 30.2549 31.2535V26.2155C29.5418 26.0408 29.1853 25.7139 29.1853 25.2406C29.1853 24.7672 29.5418 24.4291 30.2549 24.2544H36.5877H36.5821ZM38.6647 31.3662V26.114H32.3772V31.3662H38.6647Z" fill="black"/>
</svg>
